<svg xmlns="http://www.w3.org/2000/svg" width="24.887" height="24.887" viewBox="0 0 24.887 24.887">
  <path id="facebook-square-brands" d="M22.22,32H2.666A2.666,2.666,0,0,0,0,34.666V54.22a2.666,2.666,0,0,0,2.666,2.666h7.624V48.426h-3.5V44.443h3.5V41.408c0-3.452,2.055-5.36,5.2-5.36a21.2,21.2,0,0,1,3.084.269v3.389H16.841A1.991,1.991,0,0,0,14.6,41.857v2.586h3.821l-.611,3.982H14.6v8.461H22.22a2.666,2.666,0,0,0,2.666-2.666V34.666A2.666,2.666,0,0,0,22.22,32Z" transform="translate(0 -32)" fill="#fff"/>
</svg>
