<svg xmlns="http://www.w3.org/2000/svg" width="24.9" height="24.9" viewBox="0 0 24.9 24.9">
  <path id="instagram-brands" d="M12.378,37.891a6.384,6.384,0,1,0,6.383,6.384A6.373,6.373,0,0,0,12.378,37.891Zm0,10.535a4.15,4.15,0,1,1,4.15-4.15,4.158,4.158,0,0,1-4.15,4.15Zm8.132-10.8a1.489,1.489,0,1,1-1.489-1.489A1.485,1.485,0,0,1,20.51,37.63Zm4.227,1.511a7.37,7.37,0,0,0-2.011-5.217,7.415,7.415,0,0,0-5.216-2.011c-2.055-.117-8.216-.117-10.271,0a7.4,7.4,0,0,0-5.216,2.006A7.394,7.394,0,0,0,.012,39.136C-.1,41.191-.1,47.353.012,49.409a7.37,7.37,0,0,0,2.011,5.217,7.424,7.424,0,0,0,5.216,2.011c2.055.117,8.216.117,10.271,0a7.366,7.366,0,0,0,5.216-2.011,7.418,7.418,0,0,0,2.011-5.217C24.854,47.353,24.854,41.2,24.738,39.141ZM22.082,51.615a4.2,4.2,0,0,1-2.366,2.367c-1.639.65-5.527.5-7.338.5s-5.7.144-7.338-.5a4.2,4.2,0,0,1-2.366-2.367c-.65-1.639-.5-5.528-.5-7.34s-.144-5.706.5-7.34A4.2,4.2,0,0,1,5.04,34.568c1.639-.65,5.527-.5,7.338-.5s5.7-.144,7.338.5a4.2,4.2,0,0,1,2.366,2.367c.65,1.639.5,5.528.5,7.34S22.732,49.981,22.082,51.615Z" transform="translate(0.075 -31.825)" fill="#fff"/>
</svg>
