<svg xmlns="http://www.w3.org/2000/svg" width="875.07" height="900" viewBox="0 0 875.07 900">
  <g id="noun_leaf_6496" transform="translate(-1.385)">
    <path id="Trazado_1" data-name="Trazado 1" d="M297.61,801.914C158.658,760.739-242.152,584.781,212.073,0,457.7,166.688,552.34,313.351,569.863,434.545,452.376,476.62,371.492,558.42,381.572,706.415c-63.991-152.18-114.193-362.653-135.73-493.881C235.042,365.83,257.659,638.493,297.61,801.914Z" transform="translate(0)" fill="#1498d5" fill-rule="evenodd"/>
    <path id="Trazado_2" data-name="Trazado 2" d="M72.421,434.049C38.6,340.036-31.665,34.4,493.337,51.246c15.408,480.13-238.9,462.409-354.388,430C186.758,388.186,248.3,304.2,326.179,233.288A982.653,982.653,0,0,0,72.421,434.049Z" transform="translate(382.448 404.602)" fill="#1498d5" fill-rule="evenodd"/>
  </g>
</svg>
