<svg xmlns="http://www.w3.org/2000/svg" width="1023.95" height="1024" viewBox="0 0 1023.95 1024">
  <path id="sun" d="M512,320c-105.8,0-192,86.2-192,192s86.2,192,192,192,192-86.2,192-192S617.8,320,512,320Zm492.8,161L815.4,386.4l67-200.8c9-27.2-16.8-53-43.8-43.8l-200.8,67L543,19.2c-12.8-25.6-49.2-25.6-62,0L386.4,208.6l-201-67c-27.2-9-53,16.8-43.8,43.8l67,200.8L19.2,481c-25.6,12.8-25.6,49.2,0,62l189.4,94.6-67,201c-9,27.2,16.8,53,43.8,43.8l200.8-67,94.6,189.4c12.8,25.6,49.2,25.6,62,0l94.6-189.4,200.8,67c27.2,9,53-16.8,43.8-43.8L815,637.8l189.4-94.6c26-13,26-49.4.4-62.2ZM693,693c-99.8,99.8-262.2,99.8-362,0s-99.8-262.2,0-362,262.2-99.8,362,0S792.8,593.2,693,693Z" fill="#f2d900"/>
</svg>
