<svg xmlns="http://www.w3.org/2000/svg" width="512" height="1024.001" viewBox="0 0 512 1024.001">
  <path id="temperatureAir" d="M384,768A128,128,0,1,1,192,657.167V320a64,64,0,0,1,128,0V657.167A127.919,127.919,0,0,1,384,768Zm64-169.306A255,255,0,0,1,512,768c0,141.392-114.606,256-256,256-.6,0-1.218,0-1.818-.006C113.578,1023.019-.714,907.273,0,766.667A254.993,254.993,0,0,1,64,598.695V192C64,85.962,149.962,0,256,0S448,85.962,448,192ZM416,768c0-68.678-38.74-104.38-64-133V192a96,96,0,0,0-192,0V635c-25.464,28.856-63.65,64.2-64,132.16C95.554,854.909,167.128,927.389,254.848,928L256,928C344.224,928,416,856.225,416,768Z" fill="#ff9f40"/>
</svg>
