<svg xmlns="http://www.w3.org/2000/svg" width="256" height="207.919" viewBox="0 0 256 207.919"><path d="M229.686,99.9c.163,2.274.163,4.549.163,6.823,0,69.36-52.792,149.28-149.28,149.28A148.267,148.267,0,0,1,0,232.448a108.541,108.541,0,0,0,12.67.65,105.076,105.076,0,0,0,65.137-22.416A52.56,52.56,0,0,1,28.751,174.3a66.166,66.166,0,0,0,9.909.812,55.491,55.491,0,0,0,13.807-1.786A52.474,52.474,0,0,1,10.4,121.828v-.649a52.84,52.84,0,0,0,23.716,6.66A52.545,52.545,0,0,1,17.868,57.666a149.136,149.136,0,0,0,108.183,54.9,59.229,59.229,0,0,1-1.3-12.02,52.517,52.517,0,0,1,90.8-35.9,103.3,103.3,0,0,0,33.3-12.67,52.325,52.325,0,0,1-23.066,28.914A105.181,105.181,0,0,0,256,72.773,112.784,112.784,0,0,1,229.686,99.9Z" transform="translate(0 -48.082)" fill="#fff"/></svg>