<svg xmlns="http://www.w3.org/2000/svg" width="24.887" height="24.887" viewBox="0 0 24.887 24.887">
  <path id="twitter-square-brands" d="M22.22,32H2.666A2.667,2.667,0,0,0,0,34.666V54.22a2.667,2.667,0,0,0,2.666,2.666H22.22a2.667,2.667,0,0,0,2.666-2.666V34.666A2.667,2.667,0,0,0,22.22,32ZM19.5,40.821c.011.156.011.317.011.472A10.3,10.3,0,0,1,9.149,51.659a10.318,10.318,0,0,1-5.594-1.633,7.676,7.676,0,0,0,.878.044,7.3,7.3,0,0,0,4.522-1.555A3.648,3.648,0,0,1,5.55,45.988a3.927,3.927,0,0,0,1.644-.067,3.644,3.644,0,0,1-2.916-3.577V42.3a3.641,3.641,0,0,0,1.644.461A3.636,3.636,0,0,1,4.3,39.727a3.6,3.6,0,0,1,.494-1.839A10.345,10.345,0,0,0,12.3,41.7a3.651,3.651,0,0,1,6.216-3.327,7.139,7.139,0,0,0,2.311-.878,3.634,3.634,0,0,1-1.6,2.005,7.25,7.25,0,0,0,2.1-.567A7.669,7.669,0,0,1,19.5,40.821Z" transform="translate(0 -32)" fill="#fff"/>
</svg>
